# ProBuilder 5.0.3
# https://unity3d.com/unity/features/worldbuilding/probuilder
# 1/4/2022 4:33:22 AM

mtllib ./Level.mtl
o Level

g Level
v 10 -1 10
v -10 -1 10
v 10 0 10
v -10 0 10
v -10 -1 -10
v -10 0 -10
v 10 -1 -10
v 10 0 -10
v 9.5 0 9.5
v -9.5 0 9.5
v 9.5 0 -9.5
v -9.5 0 -9.5
v -10 3 10
v 10 3 10
v -9.5 3 9.5
v 9.5 3 9.5
v 10 3 -10
v 9.5 3 -9.5
v -10 3 -10
v -9.5 3 -9.5

vt 10 -1
vt -10 -1
vt 10 -0.5
vt -10 -0.5
vt -9.5 9.5
vt 9.5 9.5
vt -9.5 -9.5
vt 9.5 -9.5
vt 10 -10
vt -10 -10
vt 10 10
vt -10 10
vt 10 0
vt -10 0
vt 10 3
vt -10 3
vt 9.5 0
vt -9.5 0
vt 9.5 3
vt -9.5 3

vn 0 0 1
vn -1 0 0
vn 0 0 -1
vn 1 0 0
vn 0 1 0
vn 0 -1 0

usemtl Lit
f 3/3/1 4/4/1 2/2/1 1/1/1
f 4/3/2 6/4/2 5/2/2 2/1/2
f 6/3/3 8/4/3 7/2/3 5/1/3
f 8/3/4 3/4/4 1/2/4 7/1/4
f 11/7/5 12/8/5 10/6/5 9/5/5
f 1/11/6 2/12/6 5/10/6 7/9/6
f 16/5/5 15/6/5 13/11/5 14/12/5
f 18/7/5 16/5/5 14/12/5 17/10/5
f 15/6/5 20/8/5 19/9/5 13/11/5
f 20/8/5 18/7/5 17/10/5 19/9/5
f 14/15/1 13/16/1 4/14/1 3/13/1
f 19/15/3 17/16/3 8/14/3 6/13/3
f 15/19/3 16/20/3 9/18/3 10/17/3
f 16/19/2 18/20/2 11/18/2 9/17/2
f 13/15/2 19/16/2 6/14/2 4/13/2
f 17/15/4 14/16/4 3/14/4 8/13/4
f 20/19/4 15/20/4 10/18/4 12/17/4
f 18/19/1 20/20/1 12/18/1 11/17/1

g Cube (0)
v -3 0 -3
v -5 0 -3
v -3 2 -3
v -5 2 -3
v -5 0 -5
v -5 2 -5
v -3 0 -5
v -3 2 -5

vt 1 0
vt -1 0
vt 1 2
vt -1 2
vt -1 1
vt 1 1
vt -1 -1
vt 1 -1

vn 0 0 1
vn -1 0 0
vn 0 0 -1
vn 1 0 0
vn 0 1 0
vn 0 -1 0

usemtl Lit
f 23/23/7 24/24/7 22/22/7 21/21/7
f 24/23/8 26/24/8 25/22/8 22/21/8
f 26/23/9 28/24/9 27/22/9 25/21/9
f 28/23/10 23/24/10 21/22/10 27/21/10
f 28/27/11 26/28/11 24/26/11 23/25/11
f 21/26/12 22/25/12 25/27/12 27/28/12

g Cube (1)
v 5 0 -3
v 3 0 -3
v 5 2 -3
v 3 2 -3
v 3 0 -5
v 3 2 -5
v 5 0 -5
v 5 2 -5

vt 1 0
vt -1 0
vt 1 2
vt -1 2
vt -1 1
vt 1 1
vt -1 -1
vt 1 -1

vn 0 0 1
vn -1 0 0
vn 0 0 -1
vn 1 0 0
vn 0 1 0
vn 0 -1 0

usemtl Lit
f 31/31/13 32/32/13 30/30/13 29/29/13
f 32/31/14 34/32/14 33/30/14 30/29/14
f 34/31/15 36/32/15 35/30/15 33/29/15
f 36/31/16 31/32/16 29/30/16 35/29/16
f 36/35/17 34/36/17 32/34/17 31/33/17
f 29/34/18 30/33/18 33/35/18 35/36/18

g Cube (2)
v -3 0 5
v -5 0 5
v -3 2 5
v -5 2 5
v -5 0 3
v -5 2 3
v -3 0 3
v -3 2 3

vt 1 0
vt -1 0
vt 1 2
vt -1 2
vt -1 1
vt 1 1
vt -1 -1
vt 1 -1

vn 0 0 1
vn -1 0 0
vn 0 0 -1
vn 1 0 0
vn 0 1 0
vn 0 -1 0

usemtl Lit
f 39/39/19 40/40/19 38/38/19 37/37/19
f 40/39/20 42/40/20 41/38/20 38/37/20
f 42/39/21 44/40/21 43/38/21 41/37/21
f 44/39/22 39/40/22 37/38/22 43/37/22
f 44/43/23 42/44/23 40/42/23 39/41/23
f 37/42/24 38/41/24 41/43/24 43/44/24

g Cube (3)
v 5 0 5
v 3 0 5
v 5 2 5
v 3 2 5
v 3 0 3
v 3 2 3
v 5 0 3
v 5 2 3

vt 1 0
vt -1 0
vt 1 2
vt -1 2
vt -1 1
vt 1 1
vt -1 -1
vt 1 -1

vn 0 0 1
vn -1 0 0
vn 0 0 -1
vn 1 0 0
vn 0 1 0
vn 0 -1 0

usemtl Lit
f 47/47/25 48/48/25 46/46/25 45/45/25
f 48/47/26 50/48/26 49/46/26 46/45/26
f 50/47/27 52/48/27 51/46/27 49/45/27
f 52/47/28 47/48/28 45/46/28 51/45/28
f 52/51/29 50/52/29 48/50/29 47/49/29
f 45/50/30 46/49/30 49/51/30 51/52/30

g Ramp
v 2.510416 0 2.510416
v -2.510416 0 2.510416
v 1 1 1
v -1 1 1
v -2.510416 0 -2.510416
v -1 1 -1
v 2.510416 0 -2.510416
v 1 1 -1

vt -2.510416 2.093223
vt 2.510416 2.093223
vt -1 0.2817716
vt 1 0.2817716
vt 2.093223 2.510416
vt 2.093223 -2.510416
vt 0.2817717 1
vt 0.2817717 -1
vt 2.510416 -2.093223
vt -2.510416 -2.093223
vt 1 -0.2817716
vt -1 -0.2817716
vt -2.093223 -2.510416
vt -2.093223 2.510416
vt -0.2817717 -1
vt -0.2817717 1
vt -1 1
vt 1 1
vt -1 -1
vt 1 -1
vt 2.510416 -2.510416
vt -2.510416 -2.510416
vt 2.510416 2.510416
vt -2.510416 2.510416

vn 0 0.8338153 0.5520436
vn -0.5520436 0.8338153 0
vn 0 0.8338153 -0.5520436
vn 0.5520436 0.8338153 0
vn 0 1 0
vn 0 -1 0

usemtl Lit
f 55/55/31 56/56/31 54/54/31 53/53/31
f 56/59/32 58/60/32 57/58/32 54/57/32
f 58/63/33 60/64/33 59/62/33 57/61/33
f 60/67/34 55/68/34 53/66/34 59/65/34
f 60/71/35 58/72/35 56/70/35 55/69/35
f 53/75/36 54/76/36 57/74/36 59/73/36

g Stairs (0)
v 9.5 0 4.5
v 7.5 0 4.5
v 9.5 1 4.5
v 7.5 1 4.5
v 7.5 0 -3.5
v 7.5 0 -5.5
v 7.5 1 -3.5
v 7.5 1 -5.5
v 9.5 0 -5.5
v 9.5 1 -5.5
v 9.5 0 -3.5
v 9.5 1 -3.5
v 9.5 0 -1.5
v 7.5 0 -1.5
v 9.5 1 -1.5
v 7.5 1 -1.5
v 7.5 2 -3.5
v 9.5 2 -3.5
v 7.5 2 -1.5
v 9.5 2 -1.5
v 9.5 0 0.5
v 7.5 0 0.5
v 9.5 1 0.5
v 7.5 1 0.5
v 7.5 3 -1.5
v 9.5 3 -1.5
v 7.5 3 0.5
v 9.5 3 0.5
v 9.5 0 2.5
v 7.5 0 2.5
v 9.5 1 2.5
v 7.5 1 2.5
v 7.5 2 0.5
v 9.5 2 0.5
v 7.5 2 2.5
v 9.5 2 2.5

vt 1 0
vt -1 0
vt 1 1
vt -1 1
vt -1 -1
vt 1 -1
vt 1 3
vt -1 3
vt -3 1
vt -3 0
vt 3 0
vt 3 1
vt 1 5
vt -1 5
vt -5 1
vt -5 0
vt 5 0
vt 5 1
vt 1 7
vt -1 7
vt -7 1
vt -7 0
vt 7 0
vt 7 1
vt 1 2
vt -1 2
vt 3 2
vt -3 2
vt 5 3
vt 3 3
vt -3 3
vt -5 3
vt 7 2
vt 5 2
vt -5 2
vt -7 2
vt 1 9
vt -1 9
vt -9 1
vt -9 0
vt 9 0
vt 9 1

vn 0 0 1
vn -1 0 0
vn 0 0 -1
vn 1 0 0
vn 0 1 0
vn 0 -1 0

usemtl Lit
f 63/79/37 64/80/37 62/78/37 61/77/37
f 67/79/38 68/80/38 66/78/38 65/77/38
f 68/79/39 70/80/39 69/78/39 66/77/39
f 70/79/40 72/80/40 71/78/40 69/77/40
f 70/81/41 68/82/41 67/79/41 72/80/41
f 71/79/42 65/80/42 66/81/42 69/82/42
f 73/83/42 74/84/42 65/80/42 71/79/42
f 75/85/40 73/86/40 71/78/40 72/80/40
f 74/87/38 76/88/38 67/79/38 65/77/38
f 79/83/41 80/84/41 78/80/41 77/79/41
f 81/89/42 82/90/42 74/84/42 73/83/42
f 83/91/40 81/92/40 73/86/40 75/85/40
f 82/93/38 84/94/38 76/88/38 74/87/38
f 87/89/41 88/90/41 86/84/41 85/83/41
f 89/95/42 90/96/42 82/90/42 81/89/42
f 91/97/40 89/98/40 81/92/40 83/91/40
f 90/99/38 92/100/38 84/94/38 82/93/38
f 95/95/41 96/96/41 94/90/41 93/89/41
f 77/101/39 78/102/39 72/80/39 67/79/39
f 79/103/38 77/101/38 67/79/38 76/88/38
f 78/102/40 80/104/40 75/85/40 72/80/40
f 80/101/37 79/102/37 76/80/37 75/79/37
f 85/83/39 86/84/39 75/80/39 76/79/39
f 87/105/38 85/106/38 76/88/38 84/94/38
f 86/107/40 88/108/40 83/91/40 75/85/40
f 88/83/37 87/84/37 84/80/37 83/79/37
f 93/101/39 94/102/39 83/80/39 84/79/39
f 95/109/38 93/110/38 84/94/38 92/100/38
f 94/111/40 96/112/40 91/97/40 83/91/40
f 96/101/37 95/102/37 92/80/37 91/79/37
f 61/113/42 62/114/42 90/96/42 89/95/42
f 63/115/40 61/116/40 89/98/40 91/97/40
f 62/117/38 64/118/38 92/100/38 90/99/38
f 64/113/41 63/114/41 91/96/41 92/95/41

g Stairs (1)
v -7.5 0 4.5
v -9.5 0 4.5
v -7.5 1 4.5
v -9.5 1 4.5
v -9.5 0 -3.5
v -9.5 0 -5.5
v -9.5 1 -3.5
v -9.5 1 -5.5
v -7.5 0 -5.5
v -7.5 1 -5.5
v -7.5 0 -3.5
v -7.5 1 -3.5
v -7.5 0 -1.5
v -9.5 0 -1.5
v -7.5 1 -1.5
v -9.5 1 -1.5
v -9.5 2 -3.5
v -7.5 2 -3.5
v -9.5 2 -1.5
v -7.5 2 -1.5
v -7.5 0 0.5
v -9.5 0 0.5
v -7.5 1 0.5
v -9.5 1 0.5
v -9.5 3 -1.5
v -7.5 3 -1.5
v -9.5 3 0.5
v -7.5 3 0.5
v -7.5 0 2.5
v -9.5 0 2.5
v -7.5 1 2.5
v -9.5 1 2.5
v -9.5 2 0.5
v -7.5 2 0.5
v -9.5 2 2.5
v -7.5 2 2.5

vt 1 0
vt -1 0
vt 1 1
vt -1 1
vt -1 -1
vt 1 -1
vt 1 3
vt -1 3
vt -3 1
vt -3 0
vt 3 0
vt 3 1
vt 1 5
vt -1 5
vt -5 1
vt -5 0
vt 5 0
vt 5 1
vt 1 7
vt -1 7
vt -7 1
vt -7 0
vt 7 0
vt 7 1
vt 1 2
vt -1 2
vt 3 2
vt -3 2
vt 5 3
vt 3 3
vt -3 3
vt -5 3
vt 7 2
vt 5 2
vt -5 2
vt -7 2
vt 1 9
vt -1 9
vt -9 1
vt -9 0
vt 9 0
vt 9 1

vn 0 0 1
vn -1 0 0
vn 0 0 -1
vn 1 0 0
vn 0 1 0
vn 0 -1 0

usemtl Lit
f 99/121/43 100/122/43 98/120/43 97/119/43
f 103/121/44 104/122/44 102/120/44 101/119/44
f 104/121/45 106/122/45 105/120/45 102/119/45
f 106/121/46 108/122/46 107/120/46 105/119/46
f 106/123/47 104/124/47 103/121/47 108/122/47
f 107/121/48 101/122/48 102/123/48 105/124/48
f 109/125/48 110/126/48 101/122/48 107/121/48
f 111/127/46 109/128/46 107/120/46 108/122/46
f 110/129/44 112/130/44 103/121/44 101/119/44
f 115/125/47 116/126/47 114/122/47 113/121/47
f 117/131/48 118/132/48 110/126/48 109/125/48
f 119/133/46 117/134/46 109/128/46 111/127/46
f 118/135/44 120/136/44 112/130/44 110/129/44
f 123/131/47 124/132/47 122/126/47 121/125/47
f 125/137/48 126/138/48 118/132/48 117/131/48
f 127/139/46 125/140/46 117/134/46 119/133/46
f 126/141/44 128/142/44 120/136/44 118/135/44
f 131/137/47 132/138/47 130/132/47 129/131/47
f 113/143/45 114/144/45 108/122/45 103/121/45
f 115/145/44 113/143/44 103/121/44 112/130/44
f 114/144/46 116/146/46 111/127/46 108/122/46
f 116/143/43 115/144/43 112/122/43 111/121/43
f 121/125/45 122/126/45 111/122/45 112/121/45
f 123/147/44 121/148/44 112/130/44 120/136/44
f 122/149/46 124/150/46 119/133/46 111/127/46
f 124/125/43 123/126/43 120/122/43 119/121/43
f 129/143/45 130/144/45 119/122/45 120/121/45
f 131/151/44 129/152/44 120/136/44 128/142/44
f 130/153/46 132/154/46 127/139/46 119/133/46
f 132/143/43 131/144/43 128/122/43 127/121/43
f 97/155/48 98/156/48 126/138/48 125/137/48
f 99/157/46 97/158/46 125/140/46 127/139/46
f 98/159/44 100/160/44 128/142/44 126/141/44
f 100/155/47 99/156/47 127/138/47 128/137/47

g Stairs (2)
v -4.999997 0 -7.499983
v -5.000003 0 -9.499983
v -4.999997 1 -7.499983
v -5.000003 1 -9.499983
v 2.999997 0 -9.500007
v 4.999997 0 -9.500012
v 2.999997 1 -9.500007
v 4.999997 1 -9.500012
v 5.000003 0 -7.500012
v 5.000003 1 -7.500012
v 3.000003 0 -7.500007
v 3.000003 1 -7.500007
v 1.000003 0 -7.500001
v 0.9999971 0 -9.500001
v 1.000003 1 -7.500001
v 0.9999971 1 -9.500001
v 2.999997 2 -9.500007
v 3.000003 2 -7.500007
v 0.9999971 2 -9.500001
v 1.000003 2 -7.500001
v -0.9999971 0 -7.499995
v -1.000003 0 -9.499995
v -0.9999971 1 -7.499995
v -1.000003 1 -9.499995
v 0.9999971 3 -9.500001
v 1.000003 3 -7.500001
v -1.000003 3 -9.499995
v -0.9999971 3 -7.499995
v -2.999997 0 -7.499989
v -3.000003 0 -9.49999
v -2.999997 1 -7.499989
v -3.000003 1 -9.49999
v -1.000003 2 -9.499995
v -0.9999971 2 -7.499995
v -3.000003 2 -9.49999
v -2.999997 2 -7.499989

vt 1 0
vt -1 0
vt 1 1
vt -1 1
vt -1 -1
vt 1 -1
vt 1 3
vt -1 3
vt -3 1
vt -3 0
vt 3 0
vt 3 1
vt 1 5
vt -1 5
vt -5 1
vt -5 0
vt 5 0
vt 5 1
vt 1 7
vt -1 7
vt -7 1
vt -7 0
vt 7 0
vt 7 1
vt 1 2
vt -1 2
vt 3 2
vt -3 2
vt 5 3
vt 3 3
vt -3 3
vt -5 3
vt 7 2
vt 5 2
vt -5 2
vt -7 2
vt 1 9
vt -1 9
vt -9 1
vt -9 0
vt 9 0
vt 9 1

vn -1 0 2.920628E-06
vn -2.920628E-06 0 -1
vn 1 0 -2.920628E-06
vn 2.920628E-06 0 1
vn 0 1 0
vn 0 -1 0

usemtl Lit
f 135/163/49 136/164/49 134/162/49 133/161/49
f 139/163/50 140/164/50 138/162/50 137/161/50
f 140/163/51 142/164/51 141/162/51 138/161/51
f 142/163/52 144/164/52 143/162/52 141/161/52
f 142/165/53 140/166/53 139/163/53 144/164/53
f 143/163/54 137/164/54 138/165/54 141/166/54
f 145/167/54 146/168/54 137/164/54 143/163/54
f 147/169/52 145/170/52 143/162/52 144/164/52
f 146/171/50 148/172/50 139/163/50 137/161/50
f 151/167/53 152/168/53 150/164/53 149/163/53
f 153/173/54 154/174/54 146/168/54 145/167/54
f 155/175/52 153/176/52 145/170/52 147/169/52
f 154/177/50 156/178/50 148/172/50 146/171/50
f 159/173/53 160/174/53 158/168/53 157/167/53
f 161/179/54 162/180/54 154/174/54 153/173/54
f 163/181/52 161/182/52 153/176/52 155/175/52
f 162/183/50 164/184/50 156/178/50 154/177/50
f 167/179/53 168/180/53 166/174/53 165/173/53
f 149/185/51 150/186/51 144/164/51 139/163/51
f 151/187/50 149/185/50 139/163/50 148/172/50
f 150/186/52 152/188/52 147/169/52 144/164/52
f 152/185/49 151/186/49 148/164/49 147/163/49
f 157/167/51 158/168/51 147/164/51 148/163/51
f 159/189/50 157/190/50 148/172/50 156/178/50
f 158/191/52 160/192/52 155/175/52 147/169/52
f 160/167/49 159/168/49 156/164/49 155/163/49
f 165/185/51 166/186/51 155/164/51 156/163/51
f 167/193/50 165/194/50 156/178/50 164/184/50
f 166/195/52 168/196/52 163/181/52 155/175/52
f 168/185/49 167/186/49 164/164/49 163/163/49
f 133/197/54 134/198/54 162/180/54 161/179/54
f 135/199/52 133/200/52 161/182/52 163/181/52
f 134/201/50 136/202/50 164/184/50 162/183/50
f 136/197/53 135/198/53 163/180/53 164/179/53

g Stairs (3)
v -4.999997 0 9.500017
v -5.000003 0 7.500017
v -4.999997 1 9.500017
v -5.000003 1 7.500017
v 2.999997 0 7.499993
v 4.999997 0 7.499988
v 2.999997 1 7.499993
v 4.999997 1 7.499988
v 5.000003 0 9.499988
v 5.000003 1 9.499988
v 3.000003 0 9.499993
v 3.000003 1 9.499993
v 1.000003 0 9.499999
v 0.9999971 0 7.499999
v 1.000003 1 9.499999
v 0.9999971 1 7.499999
v 2.999997 2 7.499993
v 3.000003 2 9.499993
v 0.9999971 2 7.499999
v 1.000003 2 9.499999
v -0.9999971 0 9.500005
v -1.000003 0 7.500005
v -0.9999971 1 9.500005
v -1.000003 1 7.500005
v 0.9999971 3 7.499999
v 1.000003 3 9.499999
v -1.000003 3 7.500005
v -0.9999971 3 9.500005
v -2.999997 0 9.50001
v -3.000003 0 7.500011
v -2.999997 1 9.50001
v -3.000003 1 7.500011
v -1.000003 2 7.500005
v -0.9999971 2 9.500005
v -3.000003 2 7.500011
v -2.999997 2 9.50001

vt 1 0
vt -1 0
vt 1 1
vt -1 1
vt -1 -1
vt 1 -1
vt 1 3
vt -1 3
vt -3 1
vt -3 0
vt 3 0
vt 3 1
vt 1 5
vt -1 5
vt -5 1
vt -5 0
vt 5 0
vt 5 1
vt 1 7
vt -1 7
vt -7 1
vt -7 0
vt 7 0
vt 7 1
vt 1 2
vt -1 2
vt 3 2
vt -3 2
vt 5 3
vt 3 3
vt -3 3
vt -5 3
vt 7 2
vt 5 2
vt -5 2
vt -7 2
vt 1 9
vt -1 9
vt -9 1
vt -9 0
vt 9 0
vt 9 1

vn -1 0 2.920628E-06
vn -2.920628E-06 0 -1
vn 1 0 -2.920628E-06
vn 2.920628E-06 0 1
vn 0 1 0
vn 0 -1 0

usemtl Lit
f 171/205/55 172/206/55 170/204/55 169/203/55
f 175/205/56 176/206/56 174/204/56 173/203/56
f 176/205/57 178/206/57 177/204/57 174/203/57
f 178/205/58 180/206/58 179/204/58 177/203/58
f 178/207/59 176/208/59 175/205/59 180/206/59
f 179/205/60 173/206/60 174/207/60 177/208/60
f 181/209/60 182/210/60 173/206/60 179/205/60
f 183/211/58 181/212/58 179/204/58 180/206/58
f 182/213/56 184/214/56 175/205/56 173/203/56
f 187/209/59 188/210/59 186/206/59 185/205/59
f 189/215/60 190/216/60 182/210/60 181/209/60
f 191/217/58 189/218/58 181/212/58 183/211/58
f 190/219/56 192/220/56 184/214/56 182/213/56
f 195/215/59 196/216/59 194/210/59 193/209/59
f 197/221/60 198/222/60 190/216/60 189/215/60
f 199/223/58 197/224/58 189/218/58 191/217/58
f 198/225/56 200/226/56 192/220/56 190/219/56
f 203/221/59 204/222/59 202/216/59 201/215/59
f 185/227/57 186/228/57 180/206/57 175/205/57
f 187/229/56 185/227/56 175/205/56 184/214/56
f 186/228/58 188/230/58 183/211/58 180/206/58
f 188/227/55 187/228/55 184/206/55 183/205/55
f 193/209/57 194/210/57 183/206/57 184/205/57
f 195/231/56 193/232/56 184/214/56 192/220/56
f 194/233/58 196/234/58 191/217/58 183/211/58
f 196/209/55 195/210/55 192/206/55 191/205/55
f 201/227/57 202/228/57 191/206/57 192/205/57
f 203/235/56 201/236/56 192/220/56 200/226/56
f 202/237/58 204/238/58 199/223/58 191/217/58
f 204/227/55 203/228/55 200/206/55 199/205/55
f 169/239/60 170/240/60 198/222/60 197/221/60
f 171/241/58 169/242/58 197/224/58 199/223/58
f 170/243/56 172/244/56 200/226/56 198/225/56
f 172/239/59 171/240/59 199/222/59 200/221/59

